HIERARCHY
ROOT Hips
{
 OFFSET 0.000000 0.000000 0.000000
 CHANNELS 6 Xposition Yposition Zposition Yrotation Xrotation Zrotation
 JOINT Chest
 {
  OFFSET 0.000000 10.080317 -0.001081
  CHANNELS 3 Yrotation Xrotation Zrotation
  JOINT Chest2
  {
   OFFSET 0.000000 11.096852 0.001963
   CHANNELS 3 Yrotation Xrotation Zrotation
   JOINT Chest3
   {
    OFFSET 0.000000 10.026525 0.000000
    CHANNELS 3 Yrotation Xrotation Zrotation
    JOINT Chest4
    {
     OFFSET 0.000000 10.026525 0.000000
     CHANNELS 3 Yrotation Xrotation Zrotation
     JOINT Neck
     {
      OFFSET 0.000000 14.108171 0.000000
      CHANNELS 3 Yrotation Xrotation Zrotation
      JOINT Head
      {
       OFFSET 0.000000 9.333493 0.004668
       CHANNELS 3 Yrotation Xrotation Zrotation
       End Site
       {
        OFFSET 0.000000 17.851786 0.002438
       }
      }
     }
     JOINT RightCollar
     {
      OFFSET -3.071622 7.873185 0.000000
      CHANNELS 3 Yrotation Xrotation Zrotation
      JOINT RightShoulder
      {
       OFFSET -14.378659 0.000000 0.000000
       CHANNELS 3 Yrotation Xrotation Zrotation
       JOINT RightElbow
       {
        OFFSET -30.778728 0.000000 0.000000
        CHANNELS 3 Yrotation Xrotation Zrotation
        JOINT RightWrist
        {
         OFFSET -25.164217 0.000000 0.000000
         CHANNELS 3 Yrotation Xrotation Zrotation
         End Site
         {
          OFFSET -18.796788 0.000000 0.000000
         }
        }
       }
      }
     }
     JOINT LeftCollar
     {
      OFFSET 3.071622 7.873185 0.000000
      CHANNELS 3 Yrotation Xrotation Zrotation
      JOINT LeftShoulder
      {
       OFFSET 14.378659 0.000000 0.000000
       CHANNELS 3 Yrotation Xrotation Zrotation
       JOINT LeftElbow
       {
        OFFSET 30.778728 0.000000 0.000000
        CHANNELS 3 Yrotation Xrotation Zrotation
        JOINT LeftWrist
        {
         OFFSET 25.164217 0.000000 0.000000
         CHANNELS 3 Yrotation Xrotation Zrotation
         End Site
         {
          OFFSET 18.796788 0.000000 0.000000
         }
        }
       }
      }
     }
    }
   }
  }
 }
 JOINT RightHip
 {
  OFFSET -8.194923 0.005295 0.000540
  CHANNELS 3 Yrotation Xrotation Zrotation
  JOINT RightKnee
  {
   OFFSET 0.000000 -42.473320 -0.000511
   CHANNELS 3 Yrotation Xrotation Zrotation
   JOINT RightAnkle
   {
    OFFSET 0.000000 -41.474259 -0.000865
    CHANNELS 3 Yrotation Xrotation Zrotation
    JOINT RightToe
    {
     OFFSET 0.000000 -7.354994 16.712725
     CHANNELS 3 Yrotation Xrotation Zrotation
     End Site
     {
      OFFSET 0.000000 -1.553903 6.764158
     }
    }
   }
  }
 }
 JOINT LeftHip
 {
  OFFSET 8.194923 0.005295 0.000540
  CHANNELS 3 Yrotation Xrotation Zrotation
  JOINT LeftKnee
  {
   OFFSET 0.000000 -42.473320 -0.000511
   CHANNELS 3 Yrotation Xrotation Zrotation
   JOINT LeftAnkle
   {
    OFFSET 0.000000 -41.474259 -0.000865
    CHANNELS 3 Yrotation Xrotation Zrotation
    JOINT LeftToe
    {
     OFFSET 0.000000 -7.354994 16.712725
     CHANNELS 3 Yrotation Xrotation Zrotation
     End Site
     {
      OFFSET 0.000000 -1.553903 6.764158
     }
    }
   }
  }
 }
}
MOTION
Frames: 17
Frame Time: 0.016667
0.000000 91.111157 0.000000 0.000000 -5.826342 0.000000 0.000000 11.116423 0.000000 0.000000 -5.290081 0.000000 0.000000 0.000000 0.000000 0.000000 0.000000 0.000000 0.000000 12.665069 0.000000 0.000000 0.575450 0.000000 0.000000 0.000000 0.000000 0.000000 0.000000 0.000000 2.337306 0.000000 0.000000 -2.337306 0.000000 0.000000 0.000000 0.000000 0.000000 0.000000 0.000000 0.000000 -2.337306 0.000000 0.000000 2.337306 0.000000 0.000000 0.000000 8.578828 0.000000 0.000000 1.905768 0.000000 0.000000 -4.658254 0.000000 0.000000 0.000000 0.000000 0.000000 8.578828 0.000000 0.000000 1.905768 0.000000 0.000000 -4.658254 0.000000 0.000000 0.000000 0.000000
54.420854 93.187739 -16.132674 -161.202968 -2.657103 0.552152 5.416934 3.522036 2.447310 2.653976 1.135428 0.827388 2.653976 1.135428 0.827388 1.988884 0.855185 0.615603 1.528581 16.701093 -0.004438 2.836030 -5.155090 -0.548424 -9.626679 -1.080248 14.777134 6.318105 -0.902676 55.256470 23.362511 37.596297 15.238343 -1.429982 11.141670 -30.206763 -16.435900 -2.530289 -11.505902 -6.141508 -17.622963 -71.425405 -17.125365 47.606884 -16.914532 10.101855 17.019184 22.517088 5.729704 3.935861 -1.420267 -2.715445 -0.532361 2.987127 -7.907194 -0.198906 0.977271 2.003982 0.387516 0.170248 12.837125 1.432825 14.163517 14.173765 22.666960 -3.663334 4.429307 -1.266825 -16.077104 -3.783742 -14.619575 5.102498
54.600073 93.224782 -16.306652 -161.770506 -2.697054 0.559517 5.374819 3.596790 2.491527 2.647615 1.150813 0.838673 2.647615 1.150813 0.838673 1.984070 0.866764 0.624011 1.724537 16.673625 -0.071304 3.223525 -5.200306 -0.742281 -9.619343 -1.095180 14.770132 6.431784 -0.776939 55.396941 23.257913 37.860785 15.198705 -1.342530 11.052730 -30.535082 -16.439995 -2.568628 -11.514627 -6.159356 -17.712504 -71.354228 -17.042788 47.699704 -16.837891 10.024056 17.052195 22.534724 5.769310 3.980560 -1.302734 -2.645001 -0.540317 3.033591 -7.543075 -0.098901 1.033440 2.066504 0.384760 0.135049 12.877098 1.352695 14.393531 14.254477 23.134101 -3.723022 4.604531 -0.806530 -16.228304 -3.903066 -15.345542 5.116181
54.768711 93.264230 -16.474384 -162.341461 -2.724355 0.563900 5.333094 3.669119 2.531771 2.643213 1.166593 0.847090 2.643213 1.166593 0.847090 1.980729 0.878630 0.630263 1.923936 16.643599 -0.133380 3.615914 -5.249389 -0.928705 -9.590535 -1.107039 14.776035 6.530558 -0.651818 55.527832 23.100415 38.049637 15.121317 -1.227429 10.972488 -30.773067 -16.435856 -2.613602 -11.503900 -6.147853 -17.806756 -71.297545 -17.017488 47.788342 -16.822745 9.937131 17.103049 22.543436 5.795808 4.010217 -1.192354 -2.585964 -0.542483 3.070388 -7.147666 0.016204 1.130169 2.120388 0.378761 0.092940 12.884201 1.281485 14.596179 14.323908 23.563576 -3.776664 4.837753 -0.327221 -16.353838 -4.013878 -16.057399 5.088702
54.929191 93.305690 -16.636558 -162.988534 -2.772563 0.566654 5.389065 3.761625 2.580295 2.657129 1.177881 0.849028 2.657129 1.177881 0.849028 1.991144 0.887124 0.631641 2.105835 16.615188 -0.188047 3.973339 -5.295313 -1.095309 -9.629116 -1.106253 14.787308 6.600978 -0.597714 55.639941 22.971841 38.297341 15.115206 -1.170240 10.937101 -30.994723 -16.464787 -2.649560 -11.474573 -6.144549 -17.872285 -71.242980 -17.026049 47.833038 -16.835902 9.921959 17.145591 22.547986 5.896208 4.064904 -1.089607 -2.549554 -0.563231 3.109415 -6.706470 0.158269 1.266422 2.170774 0.375346 0.040600 13.009466 1.233451 14.783278 14.387049 23.966970 -3.806298 5.088215 0.162335 -16.434768 -4.126249 -16.750531 5.008910
55.085562 93.349758 -16.777318 -163.580456 -2.752497 0.571627 5.387309 3.796526 2.618399 2.668233 1.185878 0.853166 2.668233 1.185878 0.853166 1.999452 0.893156 0.634688 2.277848 16.592945 -0.244345 4.312969 -5.329275 -1.261356 -9.647040 -1.109161 14.790374 6.653222 -0.535185 55.718975 22.826471 38.522748 15.080877 -1.130260 10.863455 -31.194767 -16.488849 -2.703367 -11.449866 -6.133926 -17.921708 -71.222116 -17.082686 47.934114 -16.902634 9.893144 17.183587 22.552982 5.912066 4.052199 -1.006490 -2.520323 -0.592722 3.148628 -6.244734 0.313884 1.423922 2.221820 0.379202 -0.009718 13.018919 1.146537 14.924932 14.446581 24.324904 -3.846196 5.361582 0.633181 -16.487342 -4.195246 -17.403459 4.900413
55.236904 93.396043 -16.919472 -164.212436 -2.789291 0.581417 5.447043 3.889342 2.660176 2.683814 1.191713 0.853505 2.683814 1.191713 0.853505 2.011128 0.897555 0.634886 2.433678 16.570463 -0.294081 4.620352 -5.363807 -1.409608 -9.687465 -1.107441 14.803730 6.762562 -0.468024 55.775564 22.686157 38.674595 15.038679 -1.116281 10.781968 -31.365159 -16.512131 -2.749862 -11.410406 -6.134805 -17.959788 -71.202574 -17.174019 48.008874 -17.003237 9.886483 17.217622 22.577701 5.955491 4.097532 -0.929932 -2.452820 -0.629206 3.201915 -5.827798 0.488784 1.583547 2.285419 0.375669 -0.051054 13.055041 1.127929 15.065201 14.520630 24.666211 -3.906915 5.711472 1.125813 -16.465420 -4.291158 -18.049292 4.728530
55.385466 93.441907 -17.041844 -164.802336 -2.750340 0.608287 5.446552 3.915876 2.687202 2.697874 1.190503 0.852772 2.697874 1.190503 0.852772 2.021676 0.896665 0.634315 2.592257 16.551067 -0.348869 4.934617 -5.391701 -1.568160 -9.695245 -1.099521 14.782575 6.849748 -0.382861 55.847083 22.531994 38.662990 14.934072 -1.107130 10.749220 -31.409659 -16.519494 -2.797930 -11.397367 -6.154596 -17.969837 -71.181949 -17.306282 48.073588 -17.138042 9.889799 17.245849 22.624489 5.915725 4.058923 -0.890019 -2.377631 -0.648444 3.248269 -5.355310 0.643916 1.763241 2.335847 0.393667 -0.083282 13.019801 1.057899 15.146803 14.617398 24.968212 -3.945560 6.045562 1.606039 -16.446249 -4.340040 -18.661901 4.543687
55.528515 93.490539 -17.154983 -165.406495 -2.723471 0.632026 5.460552 3.940790 2.713993 2.714579 1.192276 0.853656 2.714579 1.192276 0.853656 2.034200 0.898022 0.634937 2.746652 16.533876 -0.405057 5.241612 -5.414977 -1.727794 -9.716135 -1.113848 14.767258 6.903965 -0.307899 55.899554 22.400611 38.591570 14.833917 -1.139059 10.742988 -31.323058 -16.523171 -2.829286 -11.378984 -6.190829 -17.980327 -71.180894 -17.410661 48.094747 -17.217947 9.891274 17.286672 22.650961 5.911032 4.027254 -0.847802 -2.312477 -0.667579 3.282204 -4.883483 0.817801 1.979200 2.367914 0.402171 -0.122225 12.995814 1.003993 15.228678 14.786706 25.265553 -3.950074 6.301092 2.086380 -16.420201 -4.361087 -19.269860 4.343780
55.663573 93.541354 -17.266516 -166.064393 -2.758548 0.661323 5.537305 4.028638 2.743177 2.729995 1.201737 0.853410 2.729995 1.201737 0.853410 2.045747 0.905138 0.634680 2.898858 16.516334 -0.451730 5.541245 -5.438876 -1.869076 -9.733554 -1.143627 14.764340 6.910556 -0.277816 55.910621 22.318866 38.608346 14.785578 -1.160256 10.717258 -31.246872 -16.532238 -2.876453 -11.351560 -6.216888 -17.988470 -71.197838 -17.531563 48.128412 -17.308627 9.903191 17.296136 22.679449 5.949506 4.047063 -0.804767 -2.240182 -0.671545 3.305485 -4.405478 0.996386 2.212048 2.392354 0.403885 -0.154237 13.011318 1.021152 15.303539 14.889390 25.538376 -3.986899 6.677410 2.590010 -16.335073 -4.424346 -19.877494 4.098004
55.792305 93.589219 -17.364597 -166.681954 -2.768978 0.690982 5.590120 4.082616 2.763186 2.748364 1.208826 0.851192 2.748364 1.208826 0.851192 2.059518 0.910471 0.632949 3.057287 16.500274 -0.496509 5.851753 -5.459304 -2.009021 -9.758790 -1.157516 14.758104 6.924215 -0.297006 55.898912 22.241553 38.627878 14.763437 -1.167252 10.717570 -31.225544 -16.551992 -2.898545 -11.333056 -6.211972 -18.007651 -71.198055 -17.649973 48.147464 -17.409280 9.946314 17.293220 22.722451 5.984152 4.038686 -0.773065 -2.204183 -0.667270 3.333947 -3.933026 1.157522 2.453086 2.424434 0.418118 -0.179252 13.008275 1.017829 15.369822 15.005499 25.807653 -4.017458 6.972572 3.043713 -16.237498 -4.450841 -20.448554 3.847299
55.920293 93.636087 -17.459369 -167.311932 -2.818862 0.700816 5.658823 4.162363 2.802424 2.759139 1.214126 0.849486 2.759139 1.214126 0.849486 2.067594 0.914454 0.631624 3.223066 16.497762 -0.540448 6.175078 -5.453728 -2.149324 -9.768726 -1.155921 14.747860 6.915986 -0.318072 55.875458 22.219610 38.646098 14.753667 -1.169185 10.709040 -31.215602 -16.575796 -2.900485 -11.317793 -6.199129 -18.028034 -71.211746 -17.726148 48.145334 -17.478024 9.947538 17.297916 22.740004 6.029767 4.073263 -0.721597 -2.180410 -0.676425 3.364238 -3.436037 1.329184 2.701036 2.444318 0.429518 -0.200085 13.007414 1.039694 15.455153 15.077423 26.079766 -4.058844 7.321043 3.515441 -16.112735 -4.501258 -21.030412 3.575254
56.038970 93.680514 -17.539539 -167.871211 -2.850706 0.711648 5.675159 4.213917 2.825110 2.767584 1.220702 0.850255 2.767584 1.220702 0.850255 2.073916 0.919401 0.632154 3.383052 16.505818 -0.579742 6.485519 -5.428529 -2.278320 -9.789559 -1.173542 14.747781 6.887914 -0.341356 55.829469 22.246402 38.670745 14.763810 -1.182598 10.710459 -31.243214 -16.610635 -2.890534 -11.299717 -6.189045 -18.056953 -71.243014 -17.716077 48.106583 -17.466183 9.943519 17.282768 22.751464 6.032082 4.090447 -0.683602 -2.170102 -0.684309 3.396925 -2.952849 1.491007 2.954076 2.467953 0.446220 -0.212298 12.996665 1.040947 15.536006 15.221641 26.343691 -4.077254 7.552445 3.947846 -15.992284 -4.514075 -21.568765 3.319454
56.154062 93.723201 -17.617985 -168.454265 -2.922230 0.718148 5.715615 4.303734 2.860569 2.769833 1.226481 0.848308 2.769833 1.226481 0.848308 2.075597 0.923730 0.630663 3.543947 16.523073 -0.612012 6.794664 -5.386137 -2.393972 -9.767450 -1.185528 14.745330 6.835335 -0.349472 55.769855 22.342965 38.643888 14.782296 -1.219928 10.721493 -31.279455 -16.624937 -2.877442 -11.280971 -6.221324 -18.064081 -71.281574 -17.681776 48.047828 -17.430860 9.936593 17.268840 22.747438 6.060480 4.145387 -0.639128 -2.128522 -0.691883 3.434506 -2.506806 1.649594 3.204624 2.495324 0.463431 -0.218257 13.012780 1.081022 15.624693 15.328136 26.593575 -4.115060 7.848684 4.388700 -15.845548 -4.552660 -22.098487 3.047211
56.265754 93.760700 -17.678777 -168.998313 -2.950995 0.727546 5.715911 4.354067 2.888951 2.774100 1.232171 0.849105 2.774100 1.232171 0.849105 2.078787 0.928007 0.631226 3.694801 16.544686 -0.649414 7.086692 -5.335396 -2.515178 -9.742324 -1.214932 14.744880 6.773425 -0.368550 55.673269 22.465489 38.608243 14.822467 -1.241274 10.764964 -31.363883 -16.644867 -2.880343 -11.277954 -6.256681 -18.061435 -71.324762 -17.605610 47.965881 -17.333131 9.933834 17.229405 22.710112 6.071643 4.149591 -0.606858 -2.086402 -0.691152 3.468017 -2.079709 1.791126 3.467165 2.519100 0.491658 -0.222573 13.079283 1.057927 15.702712 15.432426 26.849818 -4.129939 8.068642 4.790662 -15.737582 -4.554229 -22.589759 2.808226
56.373082 93.794116 -17.724970 -169.495513 -2.961272 0.731833 5.706412 4.397648 2.924801 2.770713 1.238050 0.850941 2.770713 1.238050 0.850941 2.076235 0.932420 0.632583 3.839574 16.565529 -0.690985 7.368840 -5.285685 -2.641853 -9.723139 -1.265482 14.742080 6.717579 -0.367436 55.550436 22.639919 38.542722 14.883437 -1.261913 10.774644 -31.462331 -16.666178 -2.885906 -11.272715 -6.297238 -18.074808 -71.383431 -17.504150 47.853928 -17.220176 9.920324 17.198389 22.668298 6.053407 4.140633 -0.578385 -2.068968 -0.704749 3.516847 -1.670629 1.924208 3.712080 2.558082 0.531429 -0.214972 13.141785 1.005164 15.768900 15.463409 27.090131 -4.154081 8.291008 5.152346 -15.617449 -4.558196 -23.038422 2.574180
56.479946 93.825711 -17.766487 -170.011912 -3.009165 0.717130 5.754992 4.469726 2.972506 2.768463 1.242227 0.851414 2.768463 1.242227 0.851414 2.074540 0.935552 0.632923 3.968843 16.591232 -0.728978 7.620612 -5.227698 -2.755975 -9.727712 -1.313889 14.752719 6.648481 -0.379649 55.396823 22.851137 38.462954 14.978565 -1.316463 10.792293 -31.577858 -16.675712 -2.879898 -11.255074 -6.335701 -18.099465 -71.447962 -17.412493 47.751445 -17.134158 9.931702 17.132944 22.626832 6.094727 4.163386 -0.524531 -2.052806 -0.720172 3.556210 -1.272265 2.063469 3.971798 2.579441 0.561750 -0.209150 13.269360 0.969892 15.871574 15.532693 27.336400 -4.159953 8.468800 5.517770 -15.498344 -4.569791 -23.478442 2.346447
